<svg width="80" height="60" viewBox="0 0 80 60" fill="none" xmlns="http://www.w3.org/2000/svg">
<path d="M16.26 30.5H17.96L11.9 16.76H10.2L4.14 30.5H5.84L7.22 27.38H14.88L16.26 30.5ZM7.86 25.9L11.06 18.68L14.24 25.9H7.86ZM20.1777 30.5H21.7377V16.76H20.1777V30.5ZM29.6642 30.72C32.8642 30.72 34.5042 28.94 34.5042 26.76C34.5042 24.34 32.6242 23.4 30.0042 22.78C27.6642 22.22 26.3042 21.72 26.3042 20.3C26.3042 19.04 27.5442 17.92 29.2442 17.92C30.6842 17.92 32.0442 18.58 33.1842 19.68L34.1442 18.46C32.8842 17.3 31.3642 16.5 29.3242 16.5C26.6842 16.5 24.7242 18.22 24.7242 20.42C24.7242 22.8 26.4642 23.66 29.2242 24.3C31.6242 24.86 32.9242 25.44 32.9242 26.9C32.9242 28.14 31.8442 29.3 29.7242 29.3C27.8042 29.3 26.3842 28.48 25.2242 27.32L24.2442 28.54C25.6242 29.9 27.4042 30.72 29.6642 30.72ZM46.8298 16.76V22.76H38.7298V16.76H37.1698V30.5H38.7298V24.24H46.8298V30.5H48.3898V16.76H46.8298ZM62.7248 30.5H64.4248L58.3648 16.76H56.6648L50.6048 30.5H52.3048L53.6848 27.38H61.3448L62.7248 30.5ZM54.3248 25.9L57.5248 18.68L60.7048 25.9H54.3248ZM69.352 30.5H70.912V18.24H75.532V16.76H64.732V18.24H69.352V30.5Z" fill="white"/>
<path d="M15.04 43.14V36.63H14.68V43.5H19V43.14H15.04ZM26.1318 43.5H26.4918V36.63H26.1318V43.5ZM39.6652 43.5H40.0652L37.0352 36.63H36.6352L33.6052 43.5H34.0052L34.7752 41.75H38.8952L39.6652 43.5ZM34.9352 41.39L36.8352 37.08L38.7352 41.39H34.9352ZM49.5548 43.61C50.9148 43.61 51.8748 42.83 51.8748 41.73C51.8748 40.77 51.2248 40.23 49.6148 39.85C48.1348 39.49 47.5448 39.09 47.5448 38.43C47.5448 37.51 48.2948 36.86 49.3648 36.86C50.1648 36.86 50.9448 37.19 51.5348 37.76L51.7548 37.48C51.0848 36.86 50.2248 36.5 49.3848 36.5C48.0948 36.5 47.1848 37.31 47.1848 38.46C47.1848 39.32 47.8248 39.81 49.4348 40.18C50.9248 40.53 51.5148 40.98 51.5148 41.76C51.5148 42.63 50.7048 43.25 49.5648 43.25C48.6248 43.25 47.6948 42.87 47.0648 42.24L46.8448 42.52C47.5448 43.21 48.5448 43.61 49.5548 43.61ZM61.9302 43.62C63.4902 43.62 64.5902 42.47 64.5902 40.85V36.63H64.2302V40.85C64.2302 42.26 63.2802 43.26 61.9302 43.26C60.5802 43.26 59.6302 42.26 59.6302 40.85V36.63H59.2702V40.85C59.2702 42.47 60.3702 43.62 61.9302 43.62Z" fill="white"/>
</svg>
