<svg width="146" height="61" viewBox="0 0 146 61" fill="none" xmlns="http://www.w3.org/2000/svg">
<path d="M25.52 32H28.92L16.8 4.52H13.4L1.28 32H4.68L7.44 25.76H22.76L25.52 32ZM8.72 22.8L15.12 8.36L21.48 22.8H8.72ZM33.3553 32H36.4753V4.52H33.3553V32ZM52.3284 32.44C58.7284 32.44 62.0084 28.88 62.0084 24.52C62.0084 19.68 58.2484 17.8 53.0084 16.56C48.3284 15.44 45.6084 14.44 45.6084 11.6C45.6084 9.08 48.0884 6.84 51.4884 6.84C54.3684 6.84 57.0884 8.16 59.3684 10.36L61.2884 7.92C58.7684 5.6 55.7284 4 51.6484 4C46.3684 4 42.4484 7.44 42.4484 11.84C42.4484 16.6 45.9284 18.32 51.4484 19.6C56.2484 20.72 58.8484 21.88 58.8484 24.8C58.8484 27.28 56.6884 29.6 52.4484 29.6C48.6084 29.6 45.7684 27.96 43.4484 25.64L41.4884 28.08C44.2484 30.8 47.8084 32.44 52.3284 32.44ZM86.6597 4.52V16.52H70.4597V4.52H67.3397V32H70.4597V19.48H86.6597V32H89.7797V4.52H86.6597ZM118.45 32H121.85L109.73 4.52H106.33L94.2097 32H97.6097L100.37 25.76H115.69L118.45 32ZM101.65 22.8L108.05 8.36L114.41 22.8H101.65ZM131.704 32H134.824V7.48H144.064V4.52H122.464V7.48H131.704V32Z" fill="black"/>
<path d="M22.08 56.28V43.26H21.36V57H30V56.28H22.08ZM44.2636 57H44.9836V43.26H44.2636V57ZM71.3303 57H72.1303L66.0703 43.26H65.2703L59.2103 57H60.0103L61.5503 53.5H69.7903L71.3303 57ZM61.8703 52.78L65.6703 44.16L69.4703 52.78H61.8703ZM91.1095 57.22C93.8295 57.22 95.7495 55.66 95.7495 53.46C95.7495 51.54 94.4495 50.46 91.2295 49.7C88.2695 48.98 87.0895 48.18 87.0895 46.86C87.0895 45.02 88.5895 43.72 90.7295 43.72C92.3295 43.72 93.8895 44.38 95.0695 45.52L95.5095 44.96C94.1695 43.72 92.4495 43 90.7695 43C88.1895 43 86.3695 44.62 86.3695 46.92C86.3695 48.64 87.6495 49.62 90.8695 50.36C93.8495 51.06 95.0295 51.96 95.0295 53.52C95.0295 55.26 93.4095 56.5 91.1295 56.5C89.2495 56.5 87.3895 55.74 86.1295 54.48L85.6895 55.04C87.0895 56.42 89.0895 57.22 91.1095 57.22ZM115.86 57.24C118.98 57.24 121.18 54.94 121.18 51.7V43.26H120.46V51.7C120.46 54.52 118.56 56.52 115.86 56.52C113.16 56.52 111.26 54.52 111.26 51.7V43.26H110.54V51.7C110.54 54.94 112.74 57.24 115.86 57.24Z" fill="black"/>
</svg>
