<svg width="99" height="60" viewBox="0 0 99 60" fill="none" xmlns="http://www.w3.org/2000/svg">
<path d="M19.256 31H22.568L15.68 14.512H12.344L5.456 31H8.792L10.04 28.024H18.008L19.256 31ZM11.12 25.432L14.024 18.496L16.928 25.432H11.12ZM24.7989 31H27.7749V14.512H24.7989V31ZM37.3156 31.264C41.2516 31.264 43.5076 29.176 43.5076 26.224C43.5076 23.224 41.2036 22.12 37.7716 21.352C35.1556 20.752 33.9316 20.272 33.9316 18.928C33.9316 17.776 35.0596 16.768 36.7156 16.768C38.3476 16.768 40.0036 17.464 41.4436 18.712L43.0756 16.504C41.4196 15.088 39.4516 14.2 36.8356 14.2C33.3556 14.2 30.9076 16.312 30.9076 19.192C30.9076 22.288 33.2836 23.272 36.6916 24.064C39.3316 24.688 40.5076 25.144 40.5076 26.512C40.5076 27.688 39.4516 28.696 37.4116 28.696C35.2516 28.696 33.4996 27.832 31.9876 26.464L30.2596 28.6C32.0836 30.304 34.4836 31.264 37.3156 31.264ZM57.4751 14.512V21.232H49.2431V14.512H46.2431V31H49.2431V23.968H57.4751V31H60.4751V14.512H57.4751ZM76.4435 31H79.7555L72.8675 14.512H69.5315L62.6435 31H65.9795L67.2275 28.024H75.1955L76.4435 31ZM68.3075 25.432L71.2115 18.496L74.1155 25.432H68.3075ZM84.8315 31H87.8075V17.248H93.0875V14.512H79.5515V17.248H84.8315V31Z" fill="white"/>
<path d="M19.016 44.872V37.756H17.792V46H23.384V44.872H19.016ZM31.8737 46H33.0857V37.756H31.8737V46ZM48.5889 46H49.9329L46.3929 37.756H45.0489L41.5089 46H42.8529L43.5729 44.32H47.8689L48.5889 46ZM44.0409 43.228L45.7209 39.316L47.4009 43.228H44.0409ZM61.2957 46.132C63.2397 46.132 64.2957 45.076 64.2957 43.684C64.2957 42.208 63.1557 41.656 61.5117 41.272C60.1557 40.948 59.4477 40.684 59.4477 39.916C59.4477 39.256 60.0957 38.668 61.0197 38.668C61.8597 38.668 62.6877 39.04 63.3837 39.676L64.0797 38.764C63.2877 38.068 62.3397 37.6 61.0677 37.6C59.4117 37.6 58.2117 38.644 58.2117 40.024C58.2117 41.512 59.3277 42.016 61.0077 42.412C62.3877 42.724 63.0717 43.024 63.0717 43.804C63.0717 44.464 62.4837 45.064 61.3437 45.064C60.2277 45.064 59.3637 44.608 58.6317 43.912L57.8997 44.812C58.7757 45.652 59.9157 46.132 61.2957 46.132ZM76.5852 46.144C78.6492 46.144 80.1252 44.644 80.1252 42.532V37.756H78.9012V42.508C78.9012 43.984 77.9412 45.04 76.5852 45.04C75.2172 45.04 74.2572 43.984 74.2572 42.508V37.756H73.0452V42.532C73.0452 44.644 74.5092 46.144 76.5852 46.144Z" fill="white"/>
</svg>
